<svg width="164" height="30" viewBox="0 0 164 30" fill="none" xmlns="http://www.w3.org/2000/svg">
<path d="M66.0708 29.4868C65.0058 29.4868 63.8942 29.4131 62.7341 29.2676C61.576 29.1201 60.478 28.9028 59.4381 28.6079C58.4003 28.315 57.4671 27.9677 56.6427 27.5681C55.9229 27.2208 55.4166 26.763 55.1237 26.1887C54.8307 25.6164 54.724 25.0092 54.8036 24.3709C54.8831 23.7307 55.1101 23.1661 55.4826 22.6733C55.855 22.1806 56.3478 21.8469 56.9608 21.6742C57.5738 21.5016 58.2664 21.5889 59.0385 21.9342C60.0512 22.4134 61.1957 22.7878 62.4742 23.0536C63.7526 23.3213 64.9515 23.4532 66.0708 23.4532C67.8284 23.4532 69.0603 23.2204 69.7665 22.7548C70.4726 22.2892 70.8257 21.7091 70.8257 21.0165C70.8257 20.4035 70.5793 19.9107 70.0865 19.5382C69.5919 19.1657 68.7208 18.8456 67.4696 18.5798L62.7962 17.5807C60.2393 17.0472 58.3343 16.116 57.083 14.7832C55.8298 13.4523 55.2052 11.7334 55.2052 9.62847C55.2052 8.24328 55.4923 6.98613 56.0646 5.85314C56.6368 4.7221 57.4497 3.75595 58.5011 2.95666C59.5526 2.15736 60.8058 1.53848 62.2569 1.09809C63.708 0.657702 65.3259 0.438477 67.1107 0.438477C68.4958 0.438477 69.9003 0.59174 71.3262 0.898267C72.7521 1.20479 73.9839 1.66459 75.0218 2.2757C75.6348 2.59581 76.0752 3.0362 76.341 3.59493C76.6087 4.15366 76.7154 4.73374 76.6611 5.33321C76.6067 5.93269 76.4011 6.45844 76.0422 6.91241C75.6833 7.36638 75.2022 7.66515 74.6028 7.81065C74.0033 7.95809 73.2914 7.85721 72.4649 7.50994C71.6909 7.16462 70.8199 6.90465 69.8479 6.73005C68.876 6.55738 67.9371 6.47008 67.0311 6.47008C66.0456 6.47008 65.2056 6.58454 64.515 6.80959C63.8224 7.03657 63.2967 7.3625 62.9378 7.78931C62.577 8.21612 62.3985 8.70889 62.3985 9.26762C62.3985 9.82636 62.6313 10.2997 63.0969 10.6858C63.5625 11.0719 64.4219 11.3978 65.6732 11.6655L70.3077 12.6646C72.8917 13.2253 74.822 14.143 76.1004 15.4215C77.3788 16.6999 78.019 18.3645 78.019 20.4151C78.019 21.8003 77.7397 23.0517 77.179 24.1711C76.6203 25.2905 75.8211 26.243 74.7812 27.0287C73.7414 27.8145 72.4902 28.4198 71.0255 28.8466C69.5608 29.2734 67.908 29.4868 66.0708 29.4868Z" fill="#00BEB4"/>
<path d="M88.365 29.4855C86.846 29.4855 85.5074 29.2062 84.3493 28.6455C83.1911 28.0868 82.2852 27.3206 81.6333 26.3486C80.9796 25.3767 80.6556 24.2651 80.6556 23.0119C80.6556 21.5725 81.0281 20.4415 81.773 19.6151C82.5199 18.7886 83.7169 18.1969 85.3697 17.8361C87.0206 17.4753 89.2186 17.2968 91.9636 17.2968H94.1616V20.6529H91.9636C90.9238 20.6529 90.0663 20.7266 89.3854 20.8721C88.7064 21.0196 88.2079 21.2446 87.8878 21.5511C87.5677 21.8576 87.4086 22.2495 87.4086 22.7287C87.4086 23.3417 87.6278 23.848 88.0682 24.2477C88.5085 24.6473 89.139 24.8471 89.9655 24.8471C90.6309 24.8471 91.2245 24.7016 91.7425 24.4067C92.2624 24.1138 92.6814 23.7084 93.0015 23.1884C93.3216 22.6685 93.4806 22.0633 93.4806 21.3707V16.7362C93.4806 15.7778 93.2343 15.0969 92.7415 14.6992C92.2488 14.2996 91.403 14.0998 90.2041 14.0998C89.5639 14.0998 88.8461 14.1735 88.0468 14.319C87.2476 14.4664 86.3552 14.7264 85.3697 15.0988C84.65 15.3665 84.0369 15.4053 83.5326 15.2191C83.0262 15.0329 82.6324 14.7128 82.3531 14.2608C82.0737 13.8068 81.9399 13.316 81.9534 12.7825C81.967 12.249 82.1397 11.7427 82.4733 11.2635C82.807 10.7844 83.3192 10.4119 84.0117 10.1442C85.2902 9.66502 86.4677 9.34493 87.5463 9.18391C88.6249 9.02484 89.6163 8.94336 90.5222 8.94336C92.7066 8.94336 94.5108 9.25763 95.9366 9.8823C97.3606 10.5089 98.4275 11.4672 99.1337 12.7593C99.8398 14.0513 100.193 15.7099 100.193 17.7333V25.8035C100.193 26.9752 99.9116 27.8676 99.3529 28.4806C98.7942 29.0937 97.9813 29.4002 96.9144 29.4002C95.8474 29.4002 94.9899 29.0937 94.4177 28.4806C93.8454 27.8676 93.5582 26.9752 93.5582 25.8035V24.7637L93.7988 25.3243C93.6649 26.1779 93.3584 26.9093 92.8793 27.5223C92.4001 28.1353 91.7735 28.6145 91.0014 28.9618C90.2293 29.3071 89.3505 29.4817 88.365 29.4817" fill="#00BEB4"/>
<path d="M112.1 29.4868C109.544 29.4868 107.658 28.802 106.447 27.4284C105.235 26.0568 104.63 23.9868 104.63 21.2145V4.11491C104.63 2.94312 104.936 2.0507 105.549 1.43765C106.162 0.824594 107.027 0.518066 108.147 0.518066C109.266 0.518066 110.178 0.824594 110.805 1.43765C111.431 2.0507 111.744 2.94312 111.744 4.11491V20.9778C111.744 21.9633 111.938 22.6831 112.324 23.1351C112.71 23.5891 113.208 23.8141 113.821 23.8141C114.007 23.8141 114.201 23.7947 114.401 23.754C114.601 23.7133 114.82 23.6803 115.061 23.6551C115.513 23.6551 115.852 23.8297 116.079 24.175C116.306 24.5223 116.419 25.2284 116.419 26.2935C116.419 27.2267 116.233 27.9251 115.86 28.3907C115.486 28.8583 114.913 29.157 114.141 29.2889C113.928 29.3142 113.621 29.3549 113.222 29.4092C112.822 29.4635 112.448 29.4888 112.102 29.4888" fill="#00BEB4"/>
<path d="M126.283 29.4856C124.578 29.4856 123.179 29.1713 122.087 28.5467C120.995 27.9201 120.176 26.9811 119.629 25.7299C119.082 24.4786 118.81 22.8917 118.81 20.975V12.5847C118.81 11.413 119.117 10.5264 119.73 9.92699C120.343 9.32755 121.222 9.0288 122.368 9.0288C123.515 9.0288 124.392 9.32755 125.005 9.92699C125.618 10.5264 125.924 11.4111 125.924 12.5847V21.1749C125.924 22.1332 126.124 22.8529 126.524 23.3321C126.923 23.8113 127.548 24.0518 128.402 24.0518C129.36 24.0518 130.146 23.7065 130.759 23.012C131.372 22.3194 131.678 21.3999 131.678 20.2553V12.5828C131.678 11.4111 131.985 10.5245 132.598 9.92505C133.211 9.32561 134.089 9.02686 135.234 9.02686C136.379 9.02686 137.257 9.32561 137.87 9.92505C138.483 10.5245 138.79 11.4091 138.79 12.5828V25.8075C138.79 28.2052 137.643 29.4041 135.354 29.4041C134.235 29.4041 133.37 29.0976 132.757 28.4846C132.144 27.8716 131.837 26.9792 131.837 25.8075V23.4892L132.477 25.4466C131.892 26.7522 131.073 27.7513 130.019 28.4439C128.966 29.1364 127.723 29.4817 126.283 29.4817" fill="#00BEB4"/>
<path d="M151.016 29.4868C149.338 29.4868 147.852 29.0736 146.56 28.2471C145.268 27.4207 144.255 26.2353 143.524 24.691C142.79 23.1468 142.426 21.3212 142.426 19.2162C142.426 17.1113 142.792 15.2197 143.524 13.7026C144.257 12.1836 145.268 11.0118 146.56 10.1873C147.852 9.3608 149.336 8.94757 151.016 8.94757C152.481 8.94757 153.8 9.29483 154.971 9.98743C156.143 10.68 156.929 11.5724 157.328 12.6647H156.888V4.11491C156.888 2.94312 157.193 2.0507 157.808 1.43765C158.421 0.824594 159.299 0.518066 160.444 0.518066C161.589 0.518066 162.434 0.824594 163.061 1.43765C163.686 2.0507 164 2.94312 164 4.11491V25.8124C164 26.9842 163.701 27.8766 163.102 28.4896C162.502 29.1027 161.629 29.4092 160.485 29.4092C159.34 29.4092 158.5 29.1027 157.887 28.4896C157.274 27.8766 156.968 26.9842 156.968 25.8124V23.5348L157.408 25.4923C157.034 26.6912 156.256 27.6574 155.07 28.3888C153.885 29.1221 152.533 29.4868 151.014 29.4868M153.291 24.2526C154.011 24.2526 154.649 24.0722 155.21 23.7133C155.769 23.3524 156.201 22.8073 156.508 22.0739C156.812 21.3406 156.968 20.39 156.968 19.2182C156.968 17.4333 156.62 16.149 155.928 15.3614C155.235 14.5756 154.356 14.1837 153.291 14.1837C152.572 14.1837 151.933 14.3584 151.373 14.7037C150.814 15.051 150.374 15.5903 150.054 16.3217C149.734 17.055 149.574 18.0192 149.574 19.2182C149.574 20.9759 149.922 22.2543 150.614 23.0536C151.307 23.8529 152.199 24.2526 153.291 24.2526Z" fill="#00BEB4"/>
<path d="M44.0078 17.8594V20.4435H47.0283C48.7549 20.4435 50.1672 19.0312 50.1672 17.3046C50.1672 16.389 49.7675 15.5664 49.137 14.9903C48.6229 14.5712 47.9731 14.3462 47.2533 14.3462C45.519 14.3462 44.0078 15.6363 44.0078 17.8594Z" fill="#004569"/>
<path d="M14.1812 10.7997C14.1812 8.24271 16.2609 6.42295 18.9477 6.42295C21.6346 6.42295 23.1943 7.89545 23.8442 10.4524C25.5339 8.3727 28.1334 6.29297 31.3828 6.29297C36.322 6.29297 39.3987 9.41256 39.3987 14.4819V25.0532C39.3987 27.5229 37.2764 29.5599 34.6322 29.5599C31.9881 29.5599 29.8658 27.5229 29.8658 25.0532V17.6015C29.8658 15.4345 28.566 14.1793 26.8763 14.1793C25.1866 14.1793 23.7142 15.4364 23.7142 17.6015V25.0532C23.7142 27.5229 21.5919 29.5599 18.9477 29.5599C16.3036 29.5599 14.1812 27.5229 14.1812 25.0532V10.7997Z" fill="#004569"/>
<path d="M4.95449 9.75439C2.22497 9.75439 0.0580444 11.9659 0.0580444 14.7323V24.3526C0.0580444 27.2295 2.25019 29.5613 4.95449 29.5613C7.65879 29.5613 9.85094 27.2295 9.85094 24.3526V14.7323C9.85094 11.9659 7.68401 9.75439 4.95449 9.75439Z" fill="#004569"/>
<path d="M4.92749 0.446289C2.18051 0.446289 0 2.52398 0 5.12352V14.1657C0 16.8699 2.20573 19.0621 4.92749 19.0621C7.64924 19.0621 9.85497 16.8699 9.85497 14.1657V5.12352C9.85497 2.52398 7.67446 0.446289 4.92749 0.446289Z" fill="#00BEB4"/>
<path d="M0.00762939 14.4486C0.153126 17.0229 2.30066 19.0657 4.92736 19.0657C7.55405 19.0657 9.70158 17.0229 9.84708 14.4486C9.70158 11.818 7.57927 9.75781 4.92736 9.75781C2.27544 9.75781 0.153126 11.818 0.00762939 14.4486Z" fill="#27B4AE"/>
</svg>
